<svg
                      width="19"
                      height="19"
                      viewBox="0 0 19 19"
                      fill="none"
                      xmlns="http://www.w3.org/2000/svg"
                    >
                      <path
                        d="M9.5 0C4.26 0 0 4.26 0 9.5C0 14.74 4.26 19 9.5 19C14.74 19 19 14.74 19 9.5C19 4.26 14.74 0 9.5 0ZM14.3 7.38L9.22 13.16C9.04 13.36 8.8 13.48 8.54 13.48C8.52 13.48 8.52 13.48 8.5 13.48C8.26 13.48 8.02 13.38 7.84 13.2L4.74 10.08C4.38 9.72 4.38 9.12 4.74 8.76C5.1 8.4 5.7 8.4 6.06 8.76L8.48 11.18L12.9 6.14C13.24 5.74 13.84 5.72 14.22 6.06C14.62 6.4 14.66 6.98 14.3 7.38Z"
                        fill="#A2D3C3"
                      />
                    </svg>