<svg width="19" height="19" viewBox="0 0 19 19" fill="none" xmlns="http://www.w3.org/2000/svg">
<path d="M9.5 0C4.26 0 0 4.26 0 9.5C0 14.74 4.26 19 9.5 19C14.74 19 19 14.74 19 9.5C19 4.26 14.74 0 9.5 0ZM13.98 12.96C14.26 13.24 14.26 13.7 13.98 13.98C13.84 14.12 13.66 14.2 13.48 14.2C13.3 14.2 13.12 14.12 12.98 13.98L9.52 10.52L6.06 13.98C5.92 14.12 5.74 14.2 5.56 14.2C5.38 14.2 5.2 14.12 5.06 13.98C4.78 13.7 4.78 13.24 5.06 12.96L8.52 9.5L5.06 6.04C4.78 5.76 4.78 5.3 5.06 5.02C5.34 4.74 5.8 4.74 6.08001 5.02L9.54 8.48001L13 5.02C13.28 4.74 13.74 4.74 14.02 5.02C14.3 5.3 14.3 5.76 14.02 6.04L10.56 9.5L13.98 12.96Z" fill="#FFC0CB"/>
</svg>
